<svg xmlns="http://www.w3.org/2000/svg" fill="#fff" height="40" viewBox="0 96 960 960" width="40"><path d="m369.331 915.999 110.638-110.254h380.03v110.254H369.331Zm-219.075-50.255h43.513l418.284-418.028-43.769-43.769-418.028 418.284v43.513Zm568.717-454.232-114.69-114.28 45.769-45.768q14.256-14.256 35.563-14.051 21.307.205 35.819 14.717l43.102 43.102q14.256 14.256 14.462 35.153.205 20.897-14.308 35.409l-45.717 45.718Zm-35.794 35.742L214.435 915.999H100.001V801.565l468.745-468.744 114.433 114.433Zm-93.075-21.743-21.82-21.564 43.769 43.769-21.949-22.205Z"/></svg>