<svg xmlns="http://www.w3.org/2000/svg" height="40" viewBox="0 96 960 960" width="40" fill="#acacbe"><path d="M707.333 915.999H284.667V439.796l264.307-267.64 28.536 24.553q5.847 5.369 9.219 14.151 3.372 8.782 3.372 18.679v8.257l-43.128 202h288.154q24.641 0 43.602 18.962 18.962 18.961 18.962 43.602v65.604q0 6.318-.051 13.343-.052 7.026-2.462 13.257L777.845 868.819q-8.625 19.851-28.877 33.515-20.253 13.665-41.635 13.665Zm-372.411-50.255h378.77q3.974 0 8.526-2.308 4.551-2.308 6.859-7.693L847.436 576.41v-74.05q0-5.129-3.59-8.719t-8.719-3.59H484.923l49.487-233.179-199.488 204.257v404.615Zm0-404.615v404.615-404.615Zm-50.255-21.333v50.255H149.846v375.693h134.821v50.255H99.591V439.796h185.076Z"/></svg>