<svg xmlns="http://www.w3.org/2000/svg" height="40" viewBox="0 96 960 960" width="40" fill="#acacbe"><path d="M251.809 252.156h422.703v476.203l-264.563 267.64-28.311-24.553q-5.816-5.369-9.188-14.151-3.371-8.782-3.371-18.936v-8l42.871-202H124.052q-24.64 0-43.602-18.962-18.961-18.961-18.961-43.602v-65.604q0-6.318-.077-13.343-.077-7.026 2.333-13.257l117.589-274.255q8.278-19.808 28.576-33.494 20.298-13.686 41.899-13.686Zm372.448 50.255H245.488q-4.231 0-8.655 2.308-4.423 2.308-6.731 7.693L111.744 591.745v74.05q0 5.129 3.461 8.719 3.462 3.59 8.847 3.59h350.204l-49.743 233.179 199.744-204.257V302.411Zm0 404.615V302.411v404.615Zm50.255 21.333v-50.255h134.821V302.411H674.512v-50.255h185.076v476.203H674.512Z"/></svg>