<svg xmlns="http://www.w3.org/2000/svg" height="24" viewBox="0 -960 960 960" width="24"><path d="M623.846-353.077v-253.846L496.154-480l127.692 126.923ZM224.615-160q-26.846 0-45.731-18.884Q160-197.769 160-224.615v-510.77q0-26.846 18.884-45.731Q197.769-800 224.615-800h510.77q26.846 0 45.731 18.884Q800-762.231 800-735.385v510.77q0 26.846-18.884 45.731Q762.231-160 735.385-160h-510.77ZM320-200v-560h-95.385q-9.23 0-16.923 7.692Q200-744.615 200-735.385v510.77q0 9.23 7.692 16.923Q215.385-200 224.615-200H320Zm40 0h375.385q9.23 0 16.923-7.692Q760-215.385 760-224.615v-510.77q0-9.23-7.692-16.923Q744.615-760 735.385-760H360v560Zm-40 0H200h120Z"/></svg>