<svg viewBox="0 0 24 24" xmlns="http://www.w3.org/2000/svg"><path d="m0 0h24v24h-24z" fill="#fff" opacity="0"/><path d="m13 2a10 10 0 0 0 -5 19.1 10.15 10.15 0 0 0 4 .9 10 10 0 0 0 6.08-2.06 1 1 0 0 0 .19-1.4 1 1 0 0 0 -1.41-.19 8 8 0 1 1 -4.09-14.35 8.17 8.17 0 0 1 7.23 8.22v.68a1.71 1.71 0 0 1 -1.78 1.7 1.82 1.82 0 0 1 -1.62-1.88v-4.32a1 1 0 0 0 -1-1 1 1 0 0 0 -1 .87 5 5 0 0 0 -3.44-1.36 5.09 5.09 0 1 0 4.15 8.09 3.6 3.6 0 0 0 5.55.61 3.67 3.67 0 0 0 1.14-2.71v-.68a10.2 10.2 0 0 0 -9-10.22zm-1.82 13.09a3.09 3.09 0 1 1 3.09-3.09 3.1 3.1 0 0 1 -3.09 3.09z" fill="#231f20"/></svg>