<svg viewBox="0 0 32 32" xmlns="http://www.w3.org/2000/svg" fill="#020202"><path d="m9.5 6c-1.921875 0-3.5 1.578125-3.5 3.5v3c0 1.921875 1.578125 3.5 3.5 3.5s3.5-1.578125 3.5-3.5v-3c0-1.921875-1.578125-3.5-3.5-3.5zm11.25 0-12 20h2.5l12-20zm-11.25 2c.839844 0 1.5.660156 1.5 1.5v3c0 .839844-.660156 1.5-1.5 1.5s-1.5-.660156-1.5-1.5v-3c0-.839844.660156-1.5 1.5-1.5zm13 8c-1.921875 0-3.5 1.578125-3.5 3.5v3c0 1.921875 1.578125 3.5 3.5 3.5s3.5-1.578125 3.5-3.5v-3c0-1.921875-1.578125-3.5-3.5-3.5zm0 2c.839844 0 1.5.660156 1.5 1.5v3c0 .839844-.660156 1.5-1.5 1.5s-1.5-.660156-1.5-1.5v-3c0-.839844.660156-1.5 1.5-1.5z"/></svg>